#!OML:ASF E:\Style3\Style3.ASF
:FULLY-SPECIFIED
:DEGREES
3013
root -2.03756 16.3898 1.28419 -1025.02 111.568 -1054.16
lowerback 30.2578 -0.438765 -6.38165
upperback 7.34202 -1.79321 -1.50347
thorax -8.12644 -0.430816 2.58751
lowerneck -2.37248 8.26975 0.864837
upperneck -20.8874 13.1668 2.66354
head -6.11696 6.77747 0.0357763
rclavicle 1.43125e-014 -1.90833e-014
rhumerus -64.3612 38.9396 -94.1054
rradius 121.328
rwrist -57.0725
rhand 43.7503 7.34515
rfingers 7.12502
rthumb 65.4214 0.885821
lclavicle 1.43125e-014 -1.90833e-014
lhumerus 60.9485 44.7754 -260.335
lradius 5.77287
lwrist 337.602
lhand -9.33458 5.04301
lfingers 7.12502
lthumb 16.6243 34.351
rfemur -62.0448 -13.9135 37.3441
rtibia 52.1768
rfoot -19.6728 -6.78145
rtoes -23.9479
lfemur -68.0939 5.14637 -3.37323
ltibia 52.493
lfoot -13.3348 -7.55528
ltoes -22.6267
3014
root -2.01524 16.3944 1.30777 -1026.65 112.571 -1055.58
lowerback 29.8626 -0.18658 -6.93497
upperback 7.67535 -1.50048 -0.960074
thorax -7.53769 -0.304254 3.40401
lowerneck -2.29132 8.13018 0.568082
upperneck -21.2142 12.985 2.55153
head -6.2425 6.71655 0.039624
rclavicle 7.15625e-014 -3.81667e-014
rhumerus -63.6451 39.5643 -93.0222
rradius 121.512
rwrist -57.1099
rhand 44.0719 6.51467
rfingers 7.12502
rthumb 65.6722 0.498217
lclavicle 7.15625e-014 -3.81667e-014
lhumerus 60.6198 46.6597 -261.154
lradius 6.15791
lwrist 335.964
lhand -10.332 4.82393
lfingers 7.12502
lthumb 15.6639 34.2099
rfemur -61.7346 -14.4146 37.4943
rtibia 52.2575
rfoot -19.9014 -7.13087
rtoes -23.3505
lfemur -68.0186 4.63723 -3.17149
ltibia 52.2215
lfoot -13.1956 -8.05667
ltoes -22.5556
3015
root -1.98506 16.3987 1.33148 -1028.17 113.493 -1057.07
lowerback 30.2841 -0.407252 -6.12499
upperback 7.36411 -1.65383 -1.5122
thorax -8.13653 -0.35891 2.37975
lowerneck -2.6182 7.85331 0.868906
upperneck -20.6387 12.7516 3.4468
head -6.04261 6.54581 0.31296
rclavicle 7.79236e-014 -1.11319e-014
rhumerus -64.2186 39.1996 -94.4023
rradius 121.46
rwrist -56.6331
rhand 44.2692 6.10299
rfingers 7.12502
rthumb 65.8252 0.362813
lclavicle 7.79236e-014 -1.11319e-014
lhumerus 58.5118 48.1466 -264.704
lradius 6.81222
lwrist 335.177
lhand -10.8942 4.8165
lfingers 7.12502
lthumb 15.1224 34.244
rfemur -61.6056 -14.7995 37.5219
rtibia 52.3696
rfoot -20.0539 -7.54165
rtoes -22.365
lfemur -68.0862 4.23814 -3.17382
ltibia 51.915
lfoot -13.0876 -8.63277
ltoes -22.7763
3016
root -1.95462 16.4038 1.35449 -1029.68 114.392 -1058.53
lowerback 30.3191 -0.48578 -6.09892
upperback 7.32627 -1.74614 -1.55418
thorax -8.19152 -0.396325 2.35042
lowerneck -2.77284 7.68116 0.619432
upperneck -20.5054 12.614 3.99762
head -6.02247 6.47277 0.537008
rclavicle 6.36111e-014 4.92986e-014
rhumerus -64.0908 39.774 -94.5497
rradius 121.417
rwrist -56.7849
rhand 44.0035 6.54089
rfingers 7.12502
rthumb 65.619 0.429412
lclavicle 6.36111e-014 4.92986e-014
lhumerus 56.5965 50.1563 -267.519
lradius 7.62696
lwrist 335.071
lhand -11.5875 5.13577
lfingers 7.12502
lthumb 14.4544 34.6124
rfemur -61.4547 -15.1757 37.4883
rtibia 52.5052
rfoot -20.2441 -8.10781
rtoes -22.1003
lfemur -68.0697 3.71672 -3.13333
ltibia 51.5699
lfoot -12.9123 -9.1252
ltoes -22.4411
3017
root -1.92405 16.4054 1.37427 -1031.14 115.261 -1059.88
lowerback 30.427 -0.556541 -5.9393
upperback 7.25602 -1.80763 -1.70817
thorax -8.33184 -0.417959 2.10848
lowerneck -2.72334 7.42841 0.505124
upperneck -20.5558 12.4184 4.64419
head -6.09075 6.35154 0.756721
rclavicle 6.20208e-014 -3.49861e-014
rhumerus -63.8812 40.0977 -94.6438
rradius 121.345
rwrist -57.224
rhand 43.8447 7.06382
rfingers 7.12502
rthumb 65.4952 0.733529
lclavicle 6.20208e-014 -3.49861e-014
lhumerus 54.2571 51.867 -270.774
lradius 8.35671
lwrist 335.147
lhand -12.7802 6.51196
lfingers 7.12502
lthumb 13.305 36.0672
rfemur -61.251 -15.5707 37.4263
rtibia 52.6633
rfoot -20.4643 -8.72678
rtoes -22.3222
lfemur -68.0012 3.15933 -3.09921
ltibia 51.247
lfoot -12.7234 -9.58565
ltoes -22.1599
3018
root -1.89174 16.4061 1.39122 -1032.34 116.141 -1061.02
lowerback 30.084 -0.35648 -6.17686
upperback 7.35834 -1.56316 -1.52518
thorax -8.05163 -0.30635 2.3582
lowerneck -2.53938 7.12829 0.477278
upperneck -20.7579 12.0761 4.83771
head -6.18996 6.16969 0.822848
rclavicle -1.27222e-014 2.70347e-014
rhumerus -63.5336 40.3609 -94.1589
rradius 121.49
rwrist -57.2886
rhand 43.5349 6.74206
rfingers 7.12502
rthumb 65.2526 -0.00855598
lclavicle -1.27222e-014 2.70347e-014
lhumerus 52.1057 53.2801 -273.365
lradius 8.93734
lwrist 335.364
lhand -14.4792 8.7456
lfingers 7.12502
lthumb 11.667 38.4008
rfemur -61.078 -15.8901 37.3892
rtibia 52.7996
rfoot -20.6715 -9.27801
rtoes -22.2518
lfemur -67.9615 2.64528 -3.01942
ltibia 50.9319
lfoot -12.5267 -10.0445
ltoes -21.8116
3019
root -1.85889 16.4127 1.40489 -1033.33 117.028 -1061.95
lowerback 30.286 -0.383138 -5.47401
upperback 7.1245 -1.46438 -1.93328
thorax -8.46581 -0.256602 1.4623
lowerneck -2.52213 6.7352 0.915909
upperneck -20.5162 11.6675 5.4793
head -6.1198 5.9102 0.977393
rclavicle 7.95139e-015 7.4743e-014
rhumerus -63.9906 39.9139 -94.973
rradius 121.753
rwrist -56.9372
rhand 41.0369 9.15847
rfingers 7.12502
rthumb 63.2489 -0.688319
lclavicle 7.95139e-015 7.4743e-014
lhumerus 48.944 54.0594 -277.521
lradius 9.58047
lwrist 336.093
lhand -15.5104 10.4841
lfingers 7.12502
lthumb 10.6724 40.1931
rfemur -60.8598 -16.1694 37.3906
rtibia 52.8958
rfoot -20.8858 -9.74186
rtoes -22.2338
lfemur -67.8981 2.14354 -2.86814
ltibia 50.6192
lfoot -12.4042 -10.368
ltoes -22.0086
